# xmcd
#
# Track frame offsets:
#	300
#	24662
#	38680
#	66227
#	87765
#	128092
#	144285
#	162812
#	184447
#	195630
#	207792
#	218667
#	238747
#
# Disc length: 3613 seconds
#
# Revision: 0
# Processed by: cddbd v1.5.1PL2 Copyright (c) Steve Scherf et al.
# Submitted via: audiograbber 1.83.01
#
DISCID=b40e190d
DTITLE=Various Artist - Blues Guitar Heaven
DYEAR=1900
DGENRE=Blues
TTITLE0=Otis Rush - I Can't Quit You Baby
TTITLE1=Eric Clapton - Draggin My Tail
TTITLE2=Muddy Waters - County Jail
TTITLE3=T. Bone Walker - Stormy Monday Blues
TTITLE4=Buddy Guy - Ice Around My Heart
TTITLE5=Michael Bloomfield - WDIA
TTITLE6=Johnny Shines - I Do Believe
TTITLE7=Junior Wells and  Buddy Guy - Early in the Morning
TTITLE8=Eric Clapton - Snake Drive
TTITLE9=Lonnie Johnson - Slow and Easy
TTITLE10=John Lee Hooker - Dimples
TTITLE11=Jimmy Johnson - Strange How I Miss You
TTITLE12=Barry Levenson - Cobra Days - Blue Tears
EXTD=
EXTT0=
EXTT1=
EXTT2=
EXTT3=
EXTT4=
EXTT5=
EXTT6=
EXTT7=
EXTT8=
EXTT9=
EXTT10=
EXTT11=
EXTT12=
PLAYORDER=
